<svg xmlns="http://www.w3.org/2000/svg" xmlns:xlink="http://www.w3.org/1999/xlink" width="192" height="192" version="1.1" viewBox="0 0 192 192"><title>Master</title><desc>Created with Sketch.</desc><defs><rect id="path-1" width="152" height="152" x="0" y="0" rx="12"/><radialGradient id="radialGradient-3" cx="14.935%" cy="13.644%" r="100.424%" fx="14.935%" fy="13.644%"><stop offset="0%" stop-color="#FFF" stop-opacity=".12"/><stop offset="100%" stop-color="#FFF" stop-opacity="0"/></radialGradient><radialGradient id="radialGradient-4" cx="-.167%" cy=".103%" r="136.321%" fx="-.167%" fy=".103%"><stop offset="0%" stop-color="#1A237E" stop-opacity=".2"/><stop offset="100%" stop-color="#1A237E" stop-opacity="0"/></radialGradient><radialGradient id="radialGradient-5" cx="85.084%" cy="13.4%" r="153.655%" fx="85.084%" fy="13.4%"><stop offset="0%" stop-color="#1A237E" stop-opacity=".12"/><stop offset="100%" stop-color="#1A237E" stop-opacity="0"/></radialGradient><radialGradient id="radialGradient-6" cx="41.34%" cy="0%" r="56.544%" fx="41.34%" fy="0%"><stop offset="0%" stop-color="#1A237E" stop-opacity=".15"/><stop offset="100%" stop-color="#1A237E" stop-opacity="0"/></radialGradient><path id="path-7" d="M76,136 C109.137085,136 136,109.137085 136,76 C136,42.862915 109.137085,16 76,16 C42.862915,16 16,42.862915 16,76 C16,109.137085 42.862915,136 76,136 Z"/><mask id="mask-8" width="120" height="120" x="0" y="0" fill="#fff" maskContentUnits="userSpaceOnUse" maskUnits="objectBoundingBox"><use xlink:href="#path-7"/></mask><circle id="path-9" cx="76" cy="76" r="28"/><mask id="mask-10" width="56" height="56" x="0" y="0" fill="#fff" maskContentUnits="userSpaceOnUse" maskUnits="objectBoundingBox"><use xlink:href="#path-9"/></mask><circle id="path-11" cx="76" cy="76" r="20"/><mask id="mask-12" width="40" height="40" x="0" y="0" fill="#fff" maskContentUnits="userSpaceOnUse" maskUnits="objectBoundingBox"><use xlink:href="#path-11"/></mask></defs><g id="Page-1" fill="none" fill-rule="evenodd" stroke="none" stroke-width="1"><g id="Master"><g id="Logo" transform="translate(20.000000, 20.000000)"><mask id="mask-2" fill="#fff"><use xlink:href="#path-1"/></mask><use id="Mask" fill="#2879FF" xlink:href="#path-1"/><g id="Grid" stroke="#FFF" stroke-opacity=".2" stroke-width=".5" mask="url(#mask-2)"><g transform="translate(-20.000000, -20.000000)"><path id="Shape" d="M0,0 L192,192"/><path id="Shape" d="M192,0 L0,192"/><path id="Shape" d="M123.75,0 L123.75,192"/><path id="Shape" d="M68.25,0 L68.25,192"/><path id="Shape" d="M192,123.75 L0,123.75"/><path id="Shape" d="M192,68.25 L0,68.25"/><circle id="Oval" cx="96" cy="96" r="39"/><path id="Shape" d="M0,96 L192,96"/><path id="Shape" d="M96,0 L96,192"/></g></g><circle id="Lux" cx="76" cy="76" r="60" fill="url(#radialGradient-3)"/><path id="Shadow-Top" fill="#FFF" d="M140,0 L12,0 C5.4,0 0,5.4 0,12 L0,13 C0,6.4 5.4,1 12,1 L140,1 C146.6,1 152,6.4 152,13 L152,12 C152,5.4 146.6,0 140,0 L140,0 Z" opacity=".2"/><path id="Shadow-Bottom" fill="#000" d="M140,151 L12,151 C5.4,151 0,145.6 0,139 L0,140 C0,146.6 5.4,152 12,152 L140,152 C146.6,152 152,146.6 152,140 L152,139 C152,145.6 146.6,151 140,151 L140,151 Z" opacity=".1"/><path id="Inner-Shadow-Left" fill="url(#radialGradient-4)" d="M49.4867414,67.4824642 L25,43 L51.7233318,88.827902 C49.5318758,84.891635 48.2834423,80.3583697 48.2834423,75.5335171 C48.2834423,72.7315553 48.7044808,70.0279322 49.4867414,67.4824642 Z"/><path id="Inner-Shadow-Bottom" fill="url(#radialGradient-5)" d="M81.9694034,102.997052 L73,136.461143 L99.5643269,90.004364 L99.5567672,90 C95.8071292,96.4812972 89.476015,101.282307 81.9694034,102.997052 Z"/><path id="Inner-Shadow-Top" fill="url(#radialGradient-6)" d="M96.1004568,57.4344593 L129.523625,48.5031408 L76.2891479,48.5031408 C76.1497592,48.5010494 76.010118,48.5 75.8702316,48.5 C60.7540701,48.5 48.5,60.7540701 48.5,75.8702316 C48.5,90.9863932 60.7540701,103.240463 75.8702316,103.240463 C90.9863932,103.240463 103.240463,90.9863932 103.240463,75.8702316 C103.240463,68.7686547 100.535839,62.2987766 96.100452,57.4344581 Z"/><use id="Circle-Outer" stroke="#FFF" stroke-width="4" mask="url(#mask-8)" xlink:href="#path-7"/><use id="Circle-Middle" stroke="#FFF" stroke-width="4" mask="url(#mask-10)" xlink:href="#path-9"/><use id="Circle-Inner" stroke="#FFF" stroke-width="4" mask="url(#mask-12)" xlink:href="#path-11"/><rect id="Right" width="53" height="2" x="76" y="48" fill="#FFF"/><rect id="Bottom" width="53" height="2" x="59.633" y="111.45" fill="#FFF" transform="translate(86.132686, 112.449673) rotate(-240.000000) translate(-86.132686, -112.449673)"/><rect id="Left" width="53" height="2" x="12.867" y="65.55" fill="#FFF" transform="translate(39.367314, 66.550327) rotate(-120.000000) translate(-39.367314, -66.550327)"/></g></g></g></svg>