<svg xmlns="http://www.w3.org/2000/svg" xmlns:xlink="http://www.w3.org/1999/xlink" id="Layer_1" x="0" y="0" enable-background="new 11.6 238.5 591.7 113.5" version="1.1" viewBox="11.6 238.5 591.7 113.5" xml:space="preserve"><rect width="612" height="344.2" x="0" y="223.9" fill="none"/><g><path fill="#CCC" d="M383.1,239.5h219.3v3.7H383.1V239.5z"/><path fill="#1C4587" d="M383.1,243.2h219.3V351H383.1V243.2z"/><path fill="#CCC" d="M204.8,239.5h164.4v3.7H204.8V239.5z"/><path fill="#1C4587" d="M204.8,243.2h164.4V351H204.8V243.2z"/><path fill="#1C4587" d="M81.3,243.2h109.6V351H81.3V243.2z"/><path fill="#CCC" d="M81.3,239.5h109.6v3.7H81.3V239.5z"/><path fill="#CCC" d="M12.6,239.5h54.8v3.7H12.6L12.6,239.5z"/><path fill="#1C4587" d="M12.6,243.2h54.8V351H12.6L12.6,243.2z"/><path fill-opacity="0" d="M383.1,239.5h219.3V351H383.1V239.5z"/><path fill="none" stroke="#000" stroke-linejoin="round" stroke-miterlimit="10" stroke-width="2" d="M383.1,239.5h219.3V351 H383.1V239.5z"/><path fill-opacity="0" d="M204.8,239.5h164.4V351H204.8V239.5z"/><path fill="none" stroke="#000" stroke-linejoin="round" stroke-miterlimit="10" stroke-width="2" d="M204.8,239.5h164.4V351 H204.8V239.5z"/><path fill-opacity="0" d="M81.3,239.5h109.6V351H81.3V239.5z"/><path fill="none" stroke="#000" stroke-linejoin="round" stroke-miterlimit="10" stroke-width="2" d="M81.3,239.5h109.6V351 H81.3V239.5z"/><path fill-opacity="0" d="M12.6,239.5h54.8V351H12.6L12.6,239.5z"/><path fill="none" stroke="#000" stroke-linejoin="round" stroke-miterlimit="10" stroke-width="2" d="M12.6,239.5h54.8V351H12.6 L12.6,239.5z"/></g></svg>