<svg xmlns="http://www.w3.org/2000/svg" xmlns:xlink="http://www.w3.org/1999/xlink" id="Layer_1" x="0" y="0" version="1.1" viewBox="0 0 699.4 122.4" xml:space="preserve" style="enable-background:new 0 0 699.4 122.4"><style type="text/css">.st0{fill:#fff051}.st0,.st1,.st2{stroke:#010102;stroke-width:2;stroke-linecap:round;stroke-linejoin:round}.st1{fill:#8f91ff}.st2{fill:#7bce7f}.st3{fill:#010102}.st4{font-family:&apos;Courier&apos;}.st5{font-size:19.8701px}.st6{fill:none;stroke:#010102;stroke-width:2;stroke-linecap:round;stroke-linejoin:round}</style><title>figure-1</title><polygon points="215.6 54.6 1 54.6 1 1 233.5 1" class="st0"/><polygon points="448.1 54.6 215.6 54.6 233.5 1 466 1" class="st1"/><polygon points="698.4 54.6 448.1 54.6 466 1 698.4 1" class="st2"/><text class="st3 st4 st5" transform="matrix(1 0 0 1 69.5516 34.0836)">Download</text><text class="st3 st4 st5" transform="matrix(1 0 0 1 290.1102 34.0836)">Decompress</text><text class="st3 st4 st5" transform="matrix(1 0 0 1 474.9022 34.0836)">Parse/Compile/Exec</text><polyline points="687.8 90.4 698.4 90.4 698.4 54.6" class="st6"/><text class="st4 st5" transform="matrix(1 0 0 1 138.1468 90.4157)">300KB</text><text class="st4 st5" transform="matrix(1 0 0 1 78.5266 114.2599)">compressed</text><polyline points="437.4 90.4 448.1 90.4 448.1 54.6" class="st6"/><text class="st4 st5" transform="matrix(1 0 0 1 370.6273 90.4157)">900KB</text><text class="st4 st5" transform="matrix(1 0 0 1 287.1595 114.2599)">decompressed</text><polyline points="205 90.4 215.6 90.4 215.6 54.6" class="st6"/><text class="st4 st5" transform="matrix(1 0 0 1 620.991 90.4157)">900KB</text><text class="st4 st5" transform="matrix(1 0 0 1 573.2952 114.2599)">processed</text></svg>