<svg xmlns="http://www.w3.org/2000/svg" xmlns:xlink="http://www.w3.org/1999/xlink" width="309" height="148" version="1.1" viewBox="0 0 309 148"><title>container-two-views</title><desc>Created with Sketch.</desc><g id="Page-1" fill="none" fill-rule="evenodd" stroke="none" stroke-width="1"><g id="container-two-views"><path id="Shape" fill="#1C4587" d="M18,19 L73,19 L73,127 L18,127 L18,19 L18,19 Z"/><path id="Shape" fill="#CCC" d="M72.8,19 L72.8,23.625 L18,23.625 L18,19 L72.8,19 Z"/><path id="Shape" fill="#3C78D8" d="M73,23 L128,23 L128,127 L73,127 L73,23 L73,23 Z"/><path id="Shape-2" stroke="#C9DAF8" stroke-width="2" d="M20,23 L71,23 L71,127 L20,127 L20,23 L20,23 Z"/><path id="Shape" stroke="#000" stroke-width="2" d="M18,17 L73,17 L73,129 L18,129 L18,17 L18,17 Z"/><path id="Shape-7" fill="#1C4587" d="M181,19 L236,19 L236,127 L181,127 L181,19 L181,19 Z"/><path id="Shape-3" fill="#CCC" d="M290.8,19 L290.8,23.625 L236,23.625 L236,19 L290.8,19 Z"/><path id="Shape-4" fill="#3C78D8" d="M236,23 L291,23 L291,127 L236,127 L236,23 L236,23 Z"/><path id="Shape-5" stroke="#C9DAF8" stroke-width="2" d="M238,23 L289,23 L289,127 L238,127 L238,23 L238,23 Z"/><path id="Shape-6" stroke="#000" stroke-width="2" d="M236,17 L291,17 L291,129 L236,129 L236,17 L236,17 Z"/></g></g></svg>