<svg xmlns="http://www.w3.org/2000/svg" xmlns:xlink="http://www.w3.org/1999/xlink" width="282" height="292" version="1.1" viewBox="0 0 282 292"><title>container-two-views 2</title><desc>Created with Sketch.</desc><g id="Page-1" fill="none" fill-rule="evenodd" stroke="none" stroke-width="1"><g id="container-two-views-2"><path id="Shape" fill="#1C4587" d="M17,12.5840358 L204.708239,12.5840358 L204.708239,131.386719 L17,131.386719 L17,12.5840358 L17,12.5840358 Z"/><path id="Shape" fill="#CCC" d="M204.025664,12.5840358 L204.025664,15.514502 L17,15.514502 L17,12.5840358 L204.025664,12.5840358 Z"/><path id="Shape" fill="#3C78D8" d="M204.708239,14.9600894 L265.693616,14.9600894 L265.693616,128.218647 L204.708239,128.218647 L204.708239,14.9600894 L204.708239,14.9600894 Z"/><path id="Shape-2" stroke="#C9DAF8" stroke-width="2" d="M18.5840358,14.7521073 L203.124203,14.7521073 L203.124203,129.802683 L18.5840358,129.802683 L18.5840358,14.7521073 L18.5840358,14.7521073 Z"/><path id="Shape" stroke="#000" stroke-width="2" d="M17,11 L204.708239,11 L204.708239,131.386719 L17,131.386719 L17,11 L17,11 Z"/><g id="Group" transform="translate(17.000000, 153.000000)"><path id="Shape-7" fill="#1C4587" d="M-1.42108547e-14,1.58403577 L187.708239,1.58403577 L187.708239,120.386719 L-1.42108547e-14,120.386719 L-1.42108547e-14,1.58403577 L-1.42108547e-14,1.58403577 Z"/><path id="Shape-3" fill="#CCC" d="M187.025664,1.58403577 L187.025664,4.51450195 L0,4.51450195 L0,1.58403577 L187.025664,1.58403577 Z"/><path id="Shape-4" fill="#3C78D8" d="M125.708239,3.96008943 L186.693616,3.96008943 L186.693616,117.218647 L125.708239,117.218647 L125.708239,3.96008943 L125.708239,3.96008943 Z"/><path id="Shape-5" stroke="#C9DAF8" stroke-width="2" d="M1.58403577,3.75210732 L186.124203,3.75210732 L186.124203,118.802683 L1.58403577,118.802683 L1.58403577,3.75210732 L1.58403577,3.75210732 Z"/><path id="Shape-6" stroke="#000" stroke-width="2" d="M-1.42108547e-14,0 L187.708239,0 L187.708239,120.386719 L-1.42108547e-14,120.386719 L-1.42108547e-14,0 L-1.42108547e-14,0 Z"/></g></g></g></svg>