<svg xmlns="http://www.w3.org/2000/svg" id="svg2" width="807.637" height="239.596" viewBox="0 0 757.159 224.621"><g id="layer1" transform="translate(-43.79 -784.9)"><text id="text14946" x="437.876" y="941.283" font-family="sans-serif" font-size="40" font-weight="400" letter-spacing="0" text-anchor="middle" word-spacing="0" style="line-height:125%;text-align:center"><tspan id="tspan4342" x="437.876" y="941.283" font-size="22.5" font-style="italic" style="-inkscape-font-specification:'sans-serif Italic'">2. Browser Wakes</tspan><tspan id="tspan4385" x="437.876" y="969.408" font-size="22.5" font-style="italic" style="-inkscape-font-specification:'sans-serif Italic'">Up Service Worker</tspan></text><g id="g5167" transform="translate(-150.637 16.017)"><g id="g14663" transform="matrix(3 0 0 3 654.101 804.279)"><path id="path14665" d="M14.5 27c-.2 0-.5 0-.7-.1-2.2-.3-3.8-1.7-4.4-3.9-1-3.2-1.4-5.8-1.4-8s.4-4.8 1.4-8c.6-2.2 2.2-3.6 4.4-3.9.4-.1.9-.1 1.4 0 2.3.3 3.8 1.7 4.4 3.9.9 3.2 1.4 5.8 1.4 8s-.4 4.8-1.4 8c-.6 2.2-2.2 3.6-4.4 3.9-.2.1-.5.1-.7.1zm0-23c-.2 0-.4 0-.5.1-1.9.3-3.1 1.4-3.6 3.2-1 3-1.4 5.6-1.4 7.7 0 2.1.4 4.7 1.3 7.7.5 1.9 1.8 2.9 3.6 3.2.4.1.7.1 1.1 0 1.9-.3 3.1-1.4 3.6-3.2.9-3.1 1.3-5.6 1.3-7.7 0-2.1-.4-4.7-1.3-7.7-.5-1.9-1.8-2.9-3.6-3.2-.1-.1-.3-.1-.5-.1z"/></g><g id="g15255" transform="translate(345.885 -.02)"><path id="path14669" d="M296.43 35.434c-15.096 0-28.395 8.586-35.801 21.484a41.897 41.897 0 0 1 1.658 3.232c6.636-12.92 19.41-21.716 34.143-21.716 21.6 0 39 18.9 39 42s-17.4 42-39 42c-19.695 0-35.891-15.717-38.596-36h-3.02c2.749 22.048 20.405 39 41.616 39 23.1 0 42-20.1 42-45s-18.9-45-42-45z" transform="translate(56.786 768.903)"/></g><path id="path14592" d="M625.678 804.316c-13.64 0-26 6.17-34.107 16.043a45.054 45.054 0 0 1 1.902 2.428c7.562-9.422 19.262-15.47 32.205-15.47 17.4 0 33 10.798 38.4 27.298.6 1.5.902 3 1.202 4.5.6 3 .898 6 .898 9v4.201h-55.5c-.9 0-1.5.6-1.5 1.5 0 16.8 9.3 25.5 27 25.5 3.9 0 6.301 0 7.801-.3 4.8-.6 9.3-2.4 12.9-4.5v11.4c-4.8 2.7-10.5 4.5-16.8 5.1-1.5.3-3.3.3-5.4.3h-.3c-4.2 0-7.5-.6-10.5-1.2-12.556-2.844-22.115-11.675-25.582-22.651a44.81 44.81 0 0 1-1.64 3.367c4.354 10.69 14.122 19.213 26.623 22.283 3.3.9 6.898 1.201 11.398 1.201h.602c2.1 0 3.9 0 5.7-.3 6.9-.9 13.499-3 18.599-6 .3-.3.6-.6.6-1.2v-15c0-.3-.3-.9-.9-1.2-.6-.3-.9-.3-1.5 0-3.9 2.4-8.7 4.8-13.8 5.4-1.8.3-3.9.3-7.8.3-15.6 0-23.4-6.9-24-21h55.5c.9 0 1.5-.6 1.5-1.5v-5.7c0-3-.3-6.3-.9-9.6-.6-1.5-.9-3.3-1.5-4.8-5.7-17.7-22.2-29.4-41.1-29.4zm0 15c-8.68 0-19.672 1.662-29.424 7.784.507.891.992 1.795 1.438 2.724 9.231-5.897 19.657-7.407 27.986-7.209 12.6 0 18.9 7.5 19.5 15H609.78v-.299c.6-2.7 1.198-4.8 2.398-6.6.3-.6.301-1.2-.299-1.8-.6-.6-1.2-.6-1.8-.3-3.9 2.1-5.7 4.5-7.8 7.2-.556.557-1.114 1.355-1.671 1.95.312 1.18.57 2.382.785 3.6.376-.576.769-1.128 1.186-1.65.6-.6 1.2-1.5 1.8-2.1.9-1.2 1.8-2.4 2.7-3.3 0 .9-.3 1.5-.3 2.1-.3.9-.3 1.5-.6 2.1 0 .3 0 .9.3 1.2.3.3.6.6 1.2.6h39c.9 0 1.5-.6 1.5-1.5 0-9.6-7.8-19.5-22.5-19.5z"/><g id="g15244" transform="translate(345.885 -.02)"><path id="path14446" d="M154.434 35.434c-14.711 0-27.743 7.018-35.948 17.894.603.923 1.173 1.88 1.711 2.87 7.63-10.727 20.148-17.764 34.237-17.764 23.1 0 42 18.9 42 42s-18.9 42-42 42c-14.81 0-27.884-7.775-35.368-19.438a42.737 42.737 0 0 1-1.865 2.752c8.09 11.89 21.73 19.686 37.233 19.686 24.9 0 45-20.1 45-45s-20.1-45-45-45zm-44.016 35.6a45.06 45.06 0 0 0-.693 4.31c.14.496.29.992.408 1.49.3-1.8.3-3.9.3-5.4 0-.131-.013-.269-.015-.4z" transform="translate(56.786 768.903)"/><g id="g14428" transform="matrix(3 0 0 3 166.219 804.336)"><path id="path14430" d="M28 10H15c-.3 0-.5-.2-.5-.5s.2-.5.5-.5h13c.3 0 .5.2.5.5s-.2.5-.5.5z"/></g><g id="g14432" transform="matrix(3 0 0 3 166.219 804.336)"><path id="path14434" d="M10 18c-.2 0-.3-.1-.4-.2l-6.5-11c-.2-.3-.1-.6.1-.7.3-.2.6-.1.7.1l6.5 11c.1.2.1.5-.2.7 0 .1-.1.1-.2.1z"/></g><g id="g14436" transform="matrix(3 0 0 3 166.219 804.336)"><path id="path14438" d="M14 29.5c-.1 0-.2 0-.2-.1-.2-.1-.3-.4-.2-.7l5-10c.1-.2.4-.3.7-.2.2.1.3.4.2.7l-5 10c-.1.2-.3.3-.5.3z"/></g><g id="g14440" transform="matrix(3 0 0 3 166.219 804.336)"><path id="path14442" d="M15 21c-3.3 0-6-2.7-6-6s2.7-6 6-6 6 2.7 6 6-2.7 6-6 6zm0-11c-2.8 0-5 2.2-5 5s2.2 5 5 5 5-2.2 5-5-2.2-5-5-5z"/></g></g><path id="path14523" d="M483.104 892.816c-24.3 0-45-20.7-45-45.3 0-5.4.6-15 4.2-22.2-1.2-3.9-2.4-11.4 2.1-16.2.3-.3 1.2-.6 1.5-.3.9.3 1.2.9 1.2 1.5 0 1.5.9 4.8 2.4 7.2.9 1.5 2.4 3.3 3.3 3.6 1.8-.3 6.3-.6 8.7 0 1.8-2.4 5.1-6.3 11.1-6.3.6 0 1.2.3 1.5.9.3.6 0 1.2-.3 1.5-2.4 2.4-5.7 7.2-4.8 9.9.6 1.8 3.6 2.7 8.1 2.7h4.5c.6 0 1.2.6 1.5 1.2.3.6-.3 1.5-.9 1.8l-10.8 5.4c.3 1.5.6 3.6-.9 4.8-.3.3-.6.3-1.2.3-.3 0-.9-.3-1.2-.3 0 0-.6.3-1.5.9-.6.9-1.5 2.4-1.5 3.9 0 5.1 6.6 6 10.5 6 4.8 0 6-.9 7.2-1.5 1.2-.6 2.4-1.5 4.8-1.5 5.7 0 7.5 6.9 7.5 7.2 0 .3 0 .9-.3 1.2-.3.3-.6.6-1.2.6-2.7 0-5.7 1.2-9 2.7-2.4.9-4.5 2.1-7.2 2.7 2.1.6 4.2.6 7.2.6 11.1 0 19.5-9 19.5-21 0-4.8-.3-9.3-2.7-12.6-.3-.6-.3-1.5.3-2.1.6-.6 1.5-.6 2.1 0 4.2 3 7.5 9.3 9 15.6.3-1.8.3-3.9.3-5.4 0-11.4-6.9-26.7-14.4-31.8-.6-.3-.9-1.2-.6-1.8.3-.6 1.2-.9 1.8-.9 13.8 4.2 28.2 18.6 28.2 40.5v3c0 24.3-19.8 43.5-45 43.5zm-37.8-66.6c-3.6 7.2-4.2 16.2-4.2 21.3 0 22.8 19.2 42.3 42 42.3 23.7 0 42-17.7 42-40.5v-3c0-16.5-8.7-28.5-18.6-34.2 6 7.8 9.6 19.8 9.6 28.2 0 3 0 7.8-3.6 10.2-.3.3-.9.3-1.5 0-.6 0-.9-.6-.9-1.2-.3-3.6-1.5-7.5-3.3-10.8.3 2.1.3 3.9.3 6 0 13.8-9.6 24-22.5 24-5.1 0-8.7-.3-12.9-3.3-.6 0-.6-.9-.6-1.5s.9-.9 1.5-.9c3.6 0 7.2-1.5 10.8-3 2.7-1.2 5.4-2.4 8.1-2.7-.6-1.5-1.8-3.3-3.9-3.3-1.5 0-2.1.3-3 .9-1.5.9-3.3 2.1-9 2.1-12.3 0-13.5-6.3-13.5-9 0-3.3 2.4-6.6 5.1-7.5.6-.3 1.2-.3 1.5-.3 0-.6-.3-1.5-.6-2.1-.3-.6 0-1.5.6-1.8l6.3-3.3c-5.1-.3-8.1-1.8-9-4.5-1.2-3.3.6-6.9 2.4-9.6-2.1.9-3.9 3-4.8 4.5l-.3.3c-.3.6-1.2.9-1.8.6-.9-.3-6.9-.3-8.4 0-2.4.6-5.7-3.9-6.3-5.1-.6-1.5-1.5-3-2.1-4.8-1.5 4.2.3 9.3.6 10.2.3.6.3.9.3 1.2 0 .3-.3.3-.3.6z"/></g><text id="text14942-3" x="169.257" y="943.464" font-family="sans-serif" font-size="40" font-weight="400" letter-spacing="0" word-spacing="0" style="line-height:125%"><tspan style="-inkscape-font-specification:'sans-serif Italic';text-align:center" id="tspan14944-6" x="169.257" y="943.464" font-size="22.5" font-style="italic" text-anchor="middle">1. Message Arrives</tspan><tspan id="tspan4383" x="169.257" y="971.589" font-size="22.5" font-style="italic" text-anchor="middle" style="-inkscape-font-specification:'sans-serif Italic';text-align:center">on Device</tspan></text><g id="XMLID_49_" transform="matrix(2.4 0 0 2.4 133.564 829.334)"><g id="XMLID_535_"><path id="XMLID_522_" d="M20.5 30h-11C7.6 30 6 28.4 6 26.5v-23C6 1.6 7.6 0 9.5 0h11C22.4 0 24 1.6 24 3.5v23c0 1.9-1.6 3.5-3.5 3.5zM9.5 1C8.1 1 7 2.1 7 3.5v23C7 27.9 8.1 29 9.5 29h11c1.4 0 2.5-1.1 2.5-2.5v-23C23 2.1 21.9 1 20.5 1h-11z"/></g><g id="XMLID_50_"><path id="XMLID_521_" d="M23.5 5h-17c-.3 0-.5-.2-.5-.5s.2-.5.5-.5h17c.3 0 .5.2.5.5s-.2.5-.5.5z"/></g><g id="XMLID_51_"><path id="XMLID_520_" d="M23 25H7c-.3 0-.5-.2-.5-.5s.2-.5.5-.5h16c.3 0 .5.2.5.5s-.2.5-.5.5z"/></g><g id="XMLID_53_"><path id="XMLID_519_" d="M17.5 3h-5c-.3 0-.5-.2-.5-.5s.2-.5.5-.5h5c.3 0 .5.2.5.5s-.2.5-.5.5z"/></g><g id="XMLID_54_"><path id="XMLID_518_" d="M20.5 3c-.3 0-.5-.2-.5-.5s.2-.5.5-.5.5.2.5.5-.2.5-.5.5z"/></g><g id="XMLID_2_"><circle id="XMLID_517_" cx="15" cy="27" r="1"/></g></g><text id="text14885" x="691.491" y="941.283" font-family="sans-serif" font-size="40" font-weight="400" letter-spacing="0" text-anchor="middle" word-spacing="0" style="line-height:125%;text-align:center"><tspan id="tspan5165" x="691.491" y="941.283" font-size="22.5" font-style="italic" style="-inkscape-font-specification:'sans-serif Italic';text-align:center">3. Push Event</tspan><tspan id="tspan4391" x="691.491" y="969.408" font-size="22.5" font-style="italic" style="-inkscape-font-specification:'sans-serif Italic';text-align:center">is Dispatched</tspan></text><g id="g4400" transform="translate(661.93 828.334) scale(2.46667)"><g id="g4402"><path id="path4404" d="M21.9 27H2.1C.9 27 0 26 0 24.9c0-.3.1-.6.2-.9.6-1.3 3.6-8 3.6-13.5C3.8 5.8 7.5 2 12 2c4.5 0 8.2 3.8 8.2 8.5 0 5.4 3 12.2 3.6 13.5.1.3.2.6.2.9 0 1.1-.9 2.1-2.1 2.1zM12 3c-4 0-7.2 3.4-7.2 7.5 0 5.5-2.8 12-3.7 13.9-.1.1-.1.3-.1.5 0 .6.5 1.1 1.1 1.1H22c.6 0 1.1-.5 1.1-1.1 0-.2 0-.3-.1-.5-.9-1.9-3.7-8.4-3.7-13.9C19.2 6.4 16 3 12 3z"/></g><g id="g4406"><path id="path4408" d="M2.8 24.9h-.2c-.3-.1-.4-.4-.3-.7 1.1-2.4 3.5-8.5 3.5-13.7C5.8 7 8.6 4.1 12 4.1c.3 0 .5.2.5.5s-.2.5-.5.5c-2.8 0-5.2 2.4-5.2 5.4 0 5.4-2.5 11.7-3.6 14.1-.1.2-.2.3-.4.3z"/></g><g id="g4410"><path id="path4412" d="M12 30c-2.2 0-4-1.6-4-3.5 0-.3.2-.5.5-.5s.5.2.5.5c0 1.4 1.3 2.5 3 2.5s3-1.1 3-2.5c0-.3.2-.5.5-.5s.5.2.5.5c0 1.9-1.8 3.5-4 3.5z"/></g><g id="g4422"><path id="path4424" d="M14.5 3.5c-.3 0-.5-.2-.5-.5 0-1.1-.9-2-2-2s-2 .9-2 2c0 .3-.2.5-.5.5S9 3.3 9 3c0-1.7 1.3-3 3-3s3 1.3 3 3c0 .3-.2.5-.5.5z"/></g></g></g><style id="style9651"/><style id="style11289"/><style id="style4335"/></svg>