<svg xmlns="http://www.w3.org/2000/svg" id="svg2" width="854.45" height="235.152" viewBox="0 0 801.047 220.455"><g id="layer1" transform="translate(-28.67 -768.903)"><g id="g11291" transform="matrix(2.88 0 0 2.88 273.957 806.136)"><g id="g11293"><circle id="circle11295" cx="29" cy="15" r=".5" fill="#231f20" class="st0"/></g><g id="g11297"><circle id="circle11299" cx="27" cy="15" r=".5" fill="#231f20" class="st0"/></g><g id="g11301"><circle id="circle11303" cx="27" cy="17" r=".5" fill="#231f20" class="st0"/></g><g id="g11305"><circle id="circle11307" cx="27" cy="13" r=".5" fill="#231f20" class="st0"/></g><g id="g11309"><circle id="circle11311" cx="25" cy="17" r=".5" fill="#231f20" class="st0"/></g><g id="g11313"><circle id="circle11315" cx="25" cy="19" r=".5" fill="#231f20" class="st0"/></g><g id="g11317"><circle id="circle11319" cx="25" cy="13" r=".5" fill="#231f20" class="st0"/></g><g id="g11321"><circle id="circle11323" cx="25" cy="11" r=".5" fill="#231f20" class="st0"/></g><g id="g11325"><circle id="circle11327" cx="23" cy="17" r=".5" fill="#231f20" class="st0"/></g><g id="g11329"><circle id="circle11331" cx="23" cy="19" r=".5" fill="#231f20" class="st0"/></g><g id="g11333"><circle id="circle11335" cx="23" cy="21" r=".5" fill="#231f20" class="st0"/></g><g id="g11337"><circle id="circle11339" cx="23" cy="13" r=".5" fill="#231f20" class="st0"/></g><g id="g11341"><circle id="circle11343" cx="23" cy="11" r=".5" fill="#231f20" class="st0"/></g><g id="g11345"><circle id="circle11347" cx="23" cy="9" r=".5" fill="#231f20" class="st0"/></g><g id="g11349"><circle id="circle11351" cx="21" cy="17" r=".5" fill="#231f20" class="st0"/></g><g id="g11353"><circle id="circle11355" cx="21" cy="19" r=".5" fill="#231f20" class="st0"/></g><g id="g11357"><circle id="circle11359" cx="21" cy="21" r=".5" fill="#231f20" class="st0"/></g><g id="g11361"><circle id="circle11363" cx="21" cy="23" r=".5" fill="#231f20" class="st0"/></g><g id="g11365"><circle id="circle11367" cx="21" cy="13" r=".5" fill="#231f20" class="st0"/></g><g id="g11369"><circle id="circle11371" cx="21" cy="11" r=".5" fill="#231f20" class="st0"/></g><g id="g11373"><circle id="circle11375" cx="21" cy="9" r=".5" fill="#231f20" class="st0"/></g><g id="g11377"><circle id="circle11379" cx="21" cy="7" r=".5" fill="#231f20" class="st0"/></g><g id="g11381"><circle id="circle11383" cx="19" cy="17" r=".5" fill="#231f20" class="st0"/></g><g id="g11385"><circle id="circle11387" cx="19" cy="19" r=".5" fill="#231f20" class="st0"/></g><g id="g11389"><circle id="circle11391" cx="19" cy="21" r=".5" fill="#231f20" class="st0"/></g><g id="g11393"><circle id="circle11395" cx="19" cy="23" r=".5" fill="#231f20" class="st0"/></g><g id="g11397"><circle id="circle11399" cx="19" cy="25" r=".5" fill="#231f20" class="st0"/></g><g id="g11401"><circle id="circle11403" cx="19" cy="13" r=".5" fill="#231f20" class="st0"/></g><g id="g11405"><circle id="circle11407" cx="19" cy="11" r=".5" fill="#231f20" class="st0"/></g><g id="g11409"><circle id="circle11411" cx="19" cy="9" r=".5" fill="#231f20" class="st0"/></g><g id="g11413"><circle id="circle11415" cx="19" cy="7" r=".5" fill="#231f20" class="st0"/></g><g id="g11417"><circle id="circle11419" cx="19" cy="5" r=".5" fill="#231f20" class="st0"/></g><g id="g11421"><circle id="circle11423" cx="17" cy="17" r=".5" fill="#231f20" class="st0"/></g><g id="g11425"><circle id="circle11427" cx="17" cy="19" r=".5" fill="#231f20" class="st0"/></g><g id="g11429"><circle id="circle11431" cx="17" cy="21" r=".5" fill="#231f20" class="st0"/></g><g id="g11433"><circle id="circle11435" cx="17" cy="23" r=".5" fill="#231f20" class="st0"/></g><g id="g11437"><circle id="circle11439" cx="17" cy="25" r=".5" fill="#231f20" class="st0"/></g><g id="g11441"><circle id="circle11443" cx="17" cy="27" r=".5" fill="#231f20" class="st0"/></g><g id="g11445"><circle id="circle11447" cx="17" cy="13" r=".5" fill="#231f20" class="st0"/></g><g id="g11449"><circle id="circle11451" cx="17" cy="11" r=".5" fill="#231f20" class="st0"/></g><g id="g11453"><circle id="circle11455" cx="17" cy="9" r=".5" fill="#231f20" class="st0"/></g><g id="g11457"><circle id="circle11459" cx="17" cy="7" r=".5" fill="#231f20" class="st0"/></g><g id="g11461"><circle id="circle11463" cx="17" cy="5" r=".5" fill="#231f20" class="st0"/></g><g id="g11465"><circle id="circle11467" cx="17" cy="3" r=".5" fill="#231f20" class="st0"/></g><g id="g11469"><circle id="circle11471" cx="25" cy="15" r=".5" fill="#231f20" class="st0"/></g><g id="g11473"><circle id="circle11475" cx="23" cy="15" r=".5" fill="#231f20" class="st0"/></g><g id="g11477"><circle id="circle11479" cx="21" cy="15" r=".5" fill="#231f20" class="st0"/></g><g id="g11481"><circle id="circle11483" cx="19" cy="15" r=".5" fill="#231f20" class="st0"/></g><g id="g11485"><circle id="circle11487" cx="17" cy="15" r=".5" fill="#231f20" class="st0"/></g><g id="g11489"><circle id="circle11491" cx="15" cy="17" r=".5" fill="#231f20" class="st0"/></g><g id="g11493"><circle id="circle11495" cx="15" cy="13" r=".5" fill="#231f20" class="st0"/></g><g id="g11497"><circle id="circle11499" cx="15" cy="15" r=".5" fill="#231f20" class="st0"/></g><g id="g11501"><circle id="circle11503" cx="13" cy="17" r=".5" fill="#231f20" class="st0"/></g><g id="g11505"><circle id="circle11507" cx="13" cy="13" r=".5" fill="#231f20" class="st0"/></g><g id="g11509"><circle id="circle11511" cx="13" cy="15" r=".5" fill="#231f20" class="st0"/></g><g id="g11513"><circle id="circle11515" cx="11" cy="17" r=".5" fill="#231f20" class="st0"/></g><g id="g11517"><circle id="circle11519" cx="11" cy="13" r=".5" fill="#231f20" class="st0"/></g><g id="g11521"><circle id="circle11523" cx="11" cy="15" r=".5" fill="#231f20" class="st0"/></g><g id="g11525"><circle id="circle11527" cx="9" cy="17" r=".5" fill="#231f20" class="st0"/></g><g id="g11529"><circle id="circle11531" cx="9" cy="13" r=".5" fill="#231f20" class="st0"/></g><g id="g11533"><circle id="circle11535" cx="9" cy="15" r=".5" fill="#231f20" class="st0"/></g><g id="g11537"><circle id="circle11539" cx="7" cy="17" r=".5" fill="#231f20" class="st0"/></g><g id="g11541"><circle id="circle11543" cx="7" cy="13" r=".5" fill="#231f20" class="st0"/></g><g id="g11545"><circle id="circle11547" cx="7" cy="15" r=".5" fill="#231f20" class="st0"/></g><g id="g11549"><circle id="circle11551" cx="5" cy="17" r=".5" fill="#231f20" class="st0"/></g><g id="g11553"><circle id="circle11555" cx="5" cy="13" r=".5" fill="#231f20" class="st0"/></g><g id="g11557"><circle id="circle11559" cx="5" cy="15" r=".5" fill="#231f20" class="st0"/></g><g id="g11561"><circle id="circle11563" cx="3" cy="17" r=".5" fill="#231f20" class="st0"/></g><g id="g11565"><circle id="circle11567" cx="3" cy="13" r=".5" fill="#231f20" class="st0"/></g><g id="g11569"><circle id="circle11571" cx="3" cy="15" r=".5" fill="#231f20" class="st0"/></g><g id="g11573"><circle id="circle11575" cx="1" cy="17" r=".5" fill="#231f20" class="st0"/></g><g id="g11577"><circle id="circle11579" cx="1" cy="13" r=".5" fill="#231f20" class="st0"/></g><g id="g11581"><circle id="circle11583" cx="1" cy="15" r=".5" fill="#231f20" class="st0"/></g></g><text style="line-height:125%;text-align:center" id="text14946" x="316.239" y="923.582" font-family="sans-serif" font-size="40" font-weight="400" letter-spacing="0" text-anchor="middle" word-spacing="0"><tspan id="tspan14950" x="316.239" y="923.582" font-size="20" font-style="italic" style="-inkscape-font-specification:'sans-serif Italic'">Web Push Protocol</tspan><tspan style="-inkscape-font-specification:'sans-serif Italic'" id="tspan4342" x="316.239" y="948.582" font-size="20" font-style="italic">Request</tspan></text><g id="g14246" transform="matrix(3 0 0 3 83.798 804.336)"><g id="g14248"><g id="g14250"><path id="path14252" d="M25.8 30H4.2C2.3 30 .7 28.4.7 26.5S2.3 23 4.2 23h21.5c1.9 0 3.5 1.6 3.5 3.5S27.7 30 25.8 30zM4.2 24c-1.4 0-2.5 1.1-2.5 2.5S2.9 29 4.2 29h21.5c1.4 0 2.5-1.1 2.5-2.5S27.1 24 25.8 24H4.2z"/></g><g id="g14254"><path id="path14256" d="M4.8 27c-.3 0-.5-.2-.5-.5s.2-.5.5-.5.5.2.5.5-.3.5-.5.5z"/></g><g id="g14258"><path id="path14260" d="M6.8 27c-.3 0-.5-.2-.5-.5s.2-.5.5-.5.5.2.5.5-.3.5-.5.5z"/></g><g id="g14262"><path id="path14264" d="M25.8 24H4.2C2.3 24 .7 22.4.7 20.5S2.3 17 4.2 17h21.5c1.9 0 3.5 1.6 3.5 3.5S27.7 24 25.8 24zM4.2 18c-1.4 0-2.5 1.1-2.5 2.5S2.9 23 4.2 23h21.5c1.4 0 2.5-1.1 2.5-2.5S27.1 18 25.8 18H4.2z"/></g><g id="g14266"><path id="path14268" d="M4.8 21c-.3 0-.5-.2-.5-.5s.2-.5.5-.5.5.2.5.5-.2.5-.5.5z"/></g><g id="g14270"><path id="path14272" d="M6.8 21c-.3 0-.5-.2-.5-.5s.2-.5.5-.5.5.2.5.5-.3.5-.5.5z"/></g><g id="g14274"><circle id="circle14276" cx="26.3" cy="26" r="1"/></g><g id="g14278"><circle id="circle14280" cx="26.3" cy="20" r="1"/></g></g><g id="g14282"><path id="path14284" d="M21.3 15H9.2c-2.2 0-4-1.8-4-4 0-2 1.5-3.7 3.5-4v-.2c0-3.8 3-6.8 6.7-6.8 3 0 5.6 2 6.4 4.9 2.5.3 4.4 2.4 4.4 5 .1 2.8-2.2 5.1-4.9 5.1zM9.2 8c-1.6 0-2.9 1.3-2.9 3s1.3 3 3 3h12.1c2.2 0 4-1.8 4-4.1 0-2.2-1.7-3.9-3.8-4-.2 0-.4-.2-.5-.4-.7-2.6-3-4.5-5.7-4.5-3.1 0-5.7 2.6-5.7 5.8v.6c0 .2 0 .3-.1.4-.1.1-.3.2-.4.2z"/></g></g><text style="line-height:125%" id="text14942" x="64.148" y="925.086" font-family="sans-serif" font-size="40" font-weight="400" letter-spacing="0" word-spacing="0"><tspan id="tspan14944" x="64.148" y="925.086" font-size="22.5">Your Server</tspan></text><g id="g6292" transform="translate(-20.094 3.044)"><g id="g4635" transform="matrix(3 0 0 3 486.429 801.292)"><g id="g4637"><path id="path4639" d="M18.4 25H4.5C2 25 0 22.9 0 20.5c0-2.3 1.7-4.2 4-4.4v-.3c0-4.2 3.4-7.7 7.6-7.7 3.5 0 6.5 2.3 7.4 5.6 2.9.3 5 2.7 5 5.6 0 3.1-2.5 5.7-5.6 5.7zM4.5 17C2.6 17 1 18.6 1 20.5S2.6 24 4.5 24h13.9c2.6 0 4.7-2.1 4.7-4.7 0-2.5-2-4.6-4.5-4.7-.2 0-.4-.2-.5-.4-.7-3.1-3.4-5.2-6.5-5.2C8 9.1 5 12 5 15.7v.7c0 .2 0 .3-.1.4-.1.2-.3.2-.4.2z"/></g><g id="g4641"><path id="path4643" d="M25.2 21.9c-.2 0-.4-.2-.5-.4 0-.3.1-.5.4-.6 2.2-.4 3.9-2.3 3.9-4.6 0-2.5-2-4.6-4.5-4.7-.2 0-.4-.2-.5-.4-.7-3.1-3.4-5.2-6.5-5.2-1.3 0-2.6.4-3.7 1.1-.2.2-.5.1-.7-.1-.2-.2-.1-.5.1-.7C14.6 5.5 16 5 17.6 5c3.5 0 6.5 2.3 7.4 5.6 2.9.3 5 2.7 5 5.6 0 2.8-2 5.2-4.8 5.7.1 0 .1 0 0 0z"/></g></g><g id="g6223" transform="translate(504.26 840.258)"><g id="g6225"><path id="path6227" d="M15.5 26.3c-.2 0-.4-.1-.5-.3l-2.4-7.3-7.3-2.4c-.1-.1-.3-.3-.3-.5s.1-.4.2-.5l24-14c.2-.1.4-.1.5 0 .2.2.3.4.3.6l-4 21c0 .1-.1.3-.2.3-.1.1-.3.1-.4 0L16.9 20l-.9 5.9c0 .2-.2.4-.5.4zM6.7 15.7l6.5 2.2c.1 0 .3.2.3.3l1.8 5.5.7-4.5c0-.2.1-.3.2-.4.1-.1.3-.1.4 0l8.4 3.3 3.7-19.3-22 12.9z"/></g><g id="g6229"><path id="path6231" d="M16.5 19.8c-.1 0-.2 0-.3-.1-.2-.2-.3-.5-.1-.7L25 7 13.4 18.6c-.2.2-.5.2-.7 0-.2-.2-.2-.5 0-.7L29.1 1.4c.2-.2.5-.2.7 0 .2.2.2.5.1.7l-13 17.5c-.1.1-.2.2-.4.2z"/></g><g id="g6233"><path id="path6235" d="M15.5 26.3c-.1 0-.2 0-.3-.1-.2-.2-.3-.5-.1-.7l4-5c.2-.2.5-.2.7-.1.2.2.3.5.1.7l-4 5c-.1.1-.3.2-.4.2z"/></g><g id="g6237"><g id="g6239"><g id="g6241"><path id="path6243" d="M1.4 24.7c-.1 0-.2 0-.3-.1l-.9-.9c-.2-.2-.2-.5 0-.7.2-.2.5-.2.7 0l.9.9c.2.2.2.5 0 .7-.1 0-.3.1-.4.1z"/></g><g id="g6245"><path id="path6247" d="M8.8 28.7c-.6-.1-1.2-.2-1.7-.4-.3-.1-.4-.4-.3-.6.1-.2.4-.4.6-.3.5.2 1 .3 1.5.3.3 0 .5.3.4.6 0 .2-.2.4-.5.4zm2.4 0c-.2 0-.5-.2-.5-.4 0-.3.1-.5.4-.6.2 0 .3-.1.5-.1.3-.1.5.1.6.4.1.3-.1.5-.4.6-.1 0-.3 0-.6.1.1 0 .1 0 0 0zm-6.1-1.3c-.1 0-.2 0-.2-.1-.5-.3-.9-.6-1.4-.9-.2-.2-.3-.5-.1-.7.2-.2.5-.3.7-.1.4.3.9.6 1.3.8.2.1.3.4.2.7-.2.2-.3.3-.5.3z"/></g><g id="g6249"><path id="path6251" d="M13.1 28.1c-.2 0-.4-.1-.5-.3-.1-.3 0-.5.3-.7.4-.2.7-.3 1.1-.5.2-.1.5-.1.7.2.1.2.1.5-.2.7l-1.2.6h-.2z"/></g></g></g></g></g><text style="line-height:125%" id="text14942-3" x="438.913" y="925.481" font-family="sans-serif" font-size="40" font-weight="400" letter-spacing="0" word-spacing="0"><tspan id="tspan14944-6" x="438.913" y="925.481" font-size="22.5">Push Service</tspan></text><g id="XMLID_49_" transform="matrix(2.4 0 0 2.4 667.702 813.336)"><g id="XMLID_535_"><path id="XMLID_522_" d="M20.5 30h-11C7.6 30 6 28.4 6 26.5v-23C6 1.6 7.6 0 9.5 0h11C22.4 0 24 1.6 24 3.5v23c0 1.9-1.6 3.5-3.5 3.5zM9.5 1C8.1 1 7 2.1 7 3.5v23C7 27.9 8.1 29 9.5 29h11c1.4 0 2.5-1.1 2.5-2.5v-23C23 2.1 21.9 1 20.5 1h-11z"/></g><g id="XMLID_50_"><path id="XMLID_521_" d="M23.5 5h-17c-.3 0-.5-.2-.5-.5s.2-.5.5-.5h17c.3 0 .5.2.5.5s-.2.5-.5.5z"/></g><g id="XMLID_51_"><path id="XMLID_520_" d="M23 25H7c-.3 0-.5-.2-.5-.5s.2-.5.5-.5h16c.3 0 .5.2.5.5s-.2.5-.5.5z"/></g><g id="XMLID_53_"><path id="XMLID_519_" d="M17.5 3h-5c-.3 0-.5-.2-.5-.5s.2-.5.5-.5h5c.3 0 .5.2.5.5s-.2.5-.5.5z"/></g><g id="XMLID_54_"><path id="XMLID_518_" d="M20.5 3c-.3 0-.5-.2-.5-.5s.2-.5.5-.5.5.2.5.5-.2.5-.5.5z"/></g><g id="XMLID_2_"><circle id="XMLID_517_" cx="15" cy="27" r="1"/></g></g><text id="text4660" x="703.153" y="925.481" font-family="sans-serif" font-size="40" font-weight="400" letter-spacing="0" word-spacing="0" style="line-height:125%"><tspan style="text-align:center" id="tspan4662" x="703.153" y="925.481" font-size="22.5" text-anchor="middle">Message Arrives</tspan><tspan style="text-align:center" id="tspan4664" x="703.153" y="953.606" font-size="22.5" text-anchor="middle">on the Device</tspan></text><g id="g5318" transform="translate(587.895 829.614) scale(1.3126)"><path id="path5320" fill="#231f20" d="M8 29.5c-.1 0-.3 0-.4-.1-.2-.2-.2-.5 0-.7L21.3 15 7.6 1.4c-.2-.2-.2-.5 0-.7.2-.2.5-.2.7 0l14 14c.2.2.2.5 0 .7l-14 14c0 .1-.2.1-.3.1z" class="st0"/></g></g><style id="style9651">.st0{fill:#231f20}</style><style id="style11289">.st0{fill:#231f20}</style><style id="style5316">.st0{fill:#231f20}</style></svg>